# xmcd CD database file
#
# Track frame offsets:
#	150
#	16868
#	35727
#
# Disc length: 715 seconds
#
# Revision: 3
# Processed by: cddbd v1.5.1PL2 Copyright (c) Steve Scherf et al.
# Submitted via: CDex 1.51
#
DISCID=1b02c903
DTITLE=Bachelor Girl - Buses And Trains
DYEAR=1998
DGENRE=Rock
TTITLE0=Buses And Trains
TTITLE1=This Must Be Love (Like It Or Not)
TTITLE2=Buses And Trains (Roadside Mix)
EXTD=YEAR: 1998
EXTT0=
EXTT1=
EXTT2=
PLAYORDER=
